<?xml version="1.0" standalone="no"?>
<!DOCTYPE svg PUBLIC "-//W3C//DTD SVG 20010904//EN"
 "http://www.w3.org/TR/2001/REC-SVG-20010904/DTD/svg10.dtd">
<svg version="1.0" xmlns="http://www.w3.org/2000/svg"
 width="429.000000pt" height="546.000000pt" viewBox="0 0 429.000000 546.000000"
 preserveAspectRatio="xMidYMid meet">
<metadata>
Created by potrace 1.15, written by Peter Selinger 2001-2017
</metadata>
<g transform="translate(0.000000,546.000000) scale(0.100000,-0.100000)"
fill="#000000" stroke="none">
<path d="M0 2730 l0 -2730 2145 0 2145 0 0 2730 0 2730 -2145 0 -2145 0 0
-2730z m2745 2616 c80 -14 280 -59 287 -65 4 -3 10 -115 14 -248 l7 -243 -40
0 -39 0 -18 59 c-56 186 -212 340 -402 397 -81 25 -247 25 -329 0 -323 -96
-497 -395 -406 -696 47 -156 130 -281 295 -446 165 -164 338 -292 682 -504
292 -181 441 -296 639 -495 151 -150 225 -245 311 -395 193 -337 267 -820 186
-1210 -86 -410 -343 -785 -708 -1030 -519 -351 -1261 -398 -1820 -117 -178 90
-380 256 -498 410 -218 285 -317 624 -287 977 26 288 118 531 281 735 78 97
279 270 296 253 2 -3 18 -36 34 -74 l29 -68 -72 -76 c-158 -165 -264 -377
-314 -627 -26 -131 -23 -375 6 -513 115 -544 532 -949 1086 -1055 190 -37 464
-17 660 47 501 163 847 656 872 1243 26 612 -232 990 -1107 1622 -396 286
-566 441 -694 633 -65 96 -121 219 -150 330 -150 558 101 1026 613 1147 119
28 442 33 586 9z m1365 -669 l0 -32 -86 -19 c-247 -54 -314 -136 -474 -576
-29 -80 -90 -239 -135 -355 -45 -115 -88 -227 -94 -247 -7 -21 -14 -38 -17
-38 -13 0 -184 135 -184 146 0 8 41 125 91 261 174 474 209 586 209 663 0 43
-26 82 -68 99 -16 7 -67 15 -113 19 l-84 7 -3 38 -3 37 88 0 c48 0 144 3 213
6 359 16 483 21 568 22 l92 2 0 -33z m-2767 -83 c7 -36 -13 -50 -83 -57 -34
-4 -81 -15 -103 -25 -102 -45 -97 -76 76 -492 297 -716 725 -1763 957 -2340
67 -168 123 -306 125 -308 2 -2 93 246 360 983 70 193 131 356 135 364 6 10
28 -6 90 -65 l82 -79 -307 -805 c-396 -1039 -382 -1005 -404 -1024 -23 -21
-44 -20 -69 2 -11 9 -177 385 -373 842 -454 1064 -1098 2540 -1156 2653 -96
186 -199 257 -401 275 -75 7 -77 8 -80 35 -2 17 2 29 11 33 13 5 764 28 1038
33 96 1 97 1 102 -25z m725 -1700 c46 -8 121 -29 167 -45 73 -26 84 -34 89
-57 2 -15 6 -135 8 -267 l3 -240 -39 0 -40 0 -12 65 c-24 125 -61 203 -134
283 -47 52 -99 84 -200 124 -19 8 -31 27 -48 74 -33 94 -34 92 51 84 39 -3
109 -13 155 -21z"/>
</g>
</svg>
